PathFileType	4	(x/y/z)	S05_SL_Cal_T01
DataRate	CameraRate	NumFrames	NumMarkers	Units	OrigDataRate	OrigDataStartFrame	OrigNumFrames
240	240	6	50	mm	240	601	2400
Frame#	Time	Sternum			R.Acromium			L.Acromium			Top.Head			R.ASIS			L.ASIS			R.PSIS			L.PSIS			R.Great.Tro			L.Great.Tro			R.Iliac.Crest			L.Iliac.Crest			V.Sacral			R.Thigh.Upper.Post			R.Thigh.Lower.Ant			R.Thigh.Lower.Post			R.Thigh.Upper.Ant			R.Knee.Lat			R.Knee.Med			R.Shank.Upper.Post			R.Shank.Lower.Ant			R.Shank.Lower.Post			R.Shank.Upper.Ant			R.Ankle.Lat			R.Ankle.Med			R.Heel.Upper			R.Heel.Med			R.Heel.Lat			R.Toe.Lat			R.Toe.Med			R.Toe.Tip			L.Thigh.Upper.Post			L.Thigh.Lower.Ant			L.Thigh.Lower.Post			L.Thigh.Upper.Ant			L.Knee.Lat			L.Shank.Upper.Post			L.Shank.Lower.Ant			L.Shank.Lower.Post			L.Shank.Upper.Ant			L.Ankle.Lat			L.Ankle.Med			L.Heel.Upper			L.Heel.Med			L.Heel.Lat			L.Toe.Lat			L.Toe.Med			L.Toe.Tip			Cervical.Spine			Back			
		X1	Y1	Z1	X2	Y2	Z2	X3	Y3	Z3	X4	Y4	Z4	X5	Y5	Z5	X6	Y6	Z6	X7	Y7	Z7	X8	Y8	Z8	X9	Y9	Z9	X10	Y10	Z10	X11	Y11	Z11	X12	Y12	Z12	X13	Y13	Z13	X14	Y14	Z14	X15	Y15	Z15	X16	Y16	Z16	X17	Y17	Z17	X18	Y18	Z18	X19	Y19	Z19	X20	Y20	Z20	X21	Y21	Z21	X22	Y22	Z22	X23	Y23	Z23	X24	Y24	Z24	X25	Y25	Z25	X26	Y26	Z26	X27	Y27	Z27	X28	Y28	Z28	X29	Y29	Z29	X30	Y30	Z30	X31	Y31	Z31	X32	Y32	Z32	X33	Y33	Z33	X34	Y34	Z34	X35	Y35	Z35	X36	Y36	Z36	X37	Y37	Z37	X38	Y38	Z38	X39	Y39	Z39	X40	Y40	Z40	X41	Y41	Z41	X42	Y42	Z42	X43	Y43	Z43	X44	Y44	Z44	X45	Y45	Z45	X46	Y46	Z46	X47	Y47	Z47	X48	Y48	Z48	X49	Y49	Z49	X50	Y50	Z50	

601	2.5	536.84	1285.1	337.2	422.23	1532.5	495.73	411.49	1544.7	156.65	407.29	1850.6	334.41	486.45	1016.8	465.41	500.33	1024.2	214.17	290.53	1050.2	370.28	296.98	1052.6	279.23	395.42	941.86	521.34	404.84	950.63	137.07	398.74	1105.9	500.39	411.91	1105.9	165.32	278.61	1014.5	335.32	424.74	719.1	528.87	467.48	638.37	481.91	401.05	632.87	512.31	487.61	724.52	498.81	384.62	537.69	494.08	379.83	513.25	364.77	297.33	302.89	510.91	359.71	236.63	512.26	294.67	226.44	499.94	361.82	314.54	520.15	346.98	125.72	504.72	348.83	140.19	417.15	272.56	75.178	456.63	280.71	41.757	429.63	283.22	48.836	494.57	452.06	37.305	534.35	478.72	40.439	412.36	546.05	57.055	452.72	384.81	716.13	125.53	455.1	633.37	146.8	384.28	620.85	137.3	462.74	723.81	134.92	386.02	528.47	139.44	314.82	333.5	121.09	380.28	273.27	123.42	310.45	260.8	134.24	380.49	344.19	116.49	340.13	116.99	133.17	368.29	128.27	221.34	278.39	68.665	178.43	289.09	43.994	210.93	283.45	41.466	149.81	468.17	39.543	103.83	486.06	50.422	224.02	553.01	59.048	171.74	364.42	1580.2	332.47	275.84	1295.9	331.41
602	2.5042	536.83	1285.1	337.19	422.22	1532.5	495.73	411.45	1544.7	156.63	407.24	1850.6	334.39	486.44	1016.8	465.4	500.33	1024.2	214.16	290.52	1050.2	370.27	296.97	1052.6	279.22	395.42	941.86	521.33	404.84	950.63	137.06	398.74	1105.9	500.37	411.91	1105.9	165.32	278.6	1014.5	335.31	424.73	719.1	528.86	467.47	638.38	481.91	401.05	632.87	512.31	487.61	724.52	498.81	384.62	537.69	494.07	379.83	513.25	364.77	297.33	302.89	510.91	359.71	236.63	512.26	294.67	226.44	499.94	361.82	314.54	520.14	346.98	125.72	504.72	348.83	140.19	417.15	272.56	75.178	456.63	280.71	41.757	429.64	283.22	48.836	494.57	452.06	37.305	534.35	478.72	40.439	412.36	546.05	57.056	452.72	384.81	716.13	125.53	455.1	633.37	146.8	384.29	620.85	137.3	462.74	723.81	134.92	386.02	528.47	139.44	314.83	333.5	121.09	380.28	273.26	123.42	310.45	260.8	134.24	380.49	344.19	116.49	340.13	116.98	133.17	368.29	128.27	221.34	278.4	68.663	178.44	289.09	43.993	210.93	283.45	41.466	149.81	468.17	39.543	103.83	486.06	50.422	224.03	553.01	59.048	171.74	364.4	1580.2	332.46	275.82	1295.9	331.41
603	2.5083	536.82	1285.1	337.17	422.21	1532.5	495.72	411.41	1544.7	156.62	407.2	1850.6	334.37	486.43	1016.9	465.39	500.32	1024.2	214.16	290.51	1050.2	370.26	296.97	1052.7	279.21	395.41	941.87	521.32	404.84	950.62	137.06	398.74	1105.9	500.36	411.91	1105.9	165.31	278.6	1014.5	335.3	424.73	719.1	528.86	467.47	638.38	481.91	401.04	632.88	512.3	487.6	724.53	498.8	384.61	537.68	494.07	379.83	513.25	364.77	297.33	302.89	510.91	359.72	236.63	512.26	294.67	226.44	499.94	361.82	314.54	520.14	346.98	125.72	504.72	348.83	140.19	417.15	272.56	75.178	456.63	280.71	41.758	429.64	283.22	48.836	494.57	452.06	37.305	534.35	478.72	40.44	412.36	546.05	57.056	452.72	384.81	716.13	125.53	455.11	633.37	146.8	384.29	620.84	137.3	462.74	723.81	134.92	386.03	528.47	139.44	314.83	333.5	121.09	380.28	273.26	123.42	310.45	260.8	134.24	380.5	344.19	116.49	340.13	116.98	133.17	368.29	128.27	221.34	278.4	68.661	178.44	289.09	43.992	210.93	283.45	41.467	149.81	468.17	39.543	103.83	486.06	50.423	224.03	553.01	59.049	171.74	364.37	1580.2	332.44	275.81	1295.9	331.41
604	2.5125	536.81	1285.1	337.16	422.19	1532.6	495.71	411.38	1544.7	156.61	407.15	1850.6	334.35	486.43	1016.9	465.39	500.32	1024.2	214.15	290.51	1050.2	370.25	296.96	1052.7	279.2	395.4	941.87	521.31	404.84	950.62	137.05	398.74	1105.9	500.35	411.92	1105.9	165.31	278.59	1014.5	335.29	424.72	719.11	528.85	467.46	638.38	481.91	401.04	632.88	512.3	487.6	724.53	498.8	384.61	537.68	494.07	379.83	513.25	364.76	297.33	302.89	510.91	359.72	236.64	512.27	294.67	226.44	499.94	361.82	314.54	520.14	346.98	125.72	504.72	348.83	140.19	417.14	272.56	75.178	456.63	280.71	41.758	429.64	283.22	48.837	494.57	452.06	37.305	534.35	478.72	40.44	412.36	546.05	57.057	452.73	384.81	716.13	125.53	455.11	633.37	146.8	384.29	620.84	137.29	462.74	723.81	134.91	386.03	528.46	139.43	314.83	333.5	121.09	380.28	273.26	123.42	310.45	260.8	134.24	380.5	344.19	116.49	340.13	116.98	133.17	368.29	128.27	221.34	278.41	68.66	178.44	289.09	43.991	210.93	283.45	41.467	149.81	468.17	39.543	103.83	486.06	50.423	224.03	553.01	59.049	171.74	364.35	1580.2	332.43	275.8	1295.9	331.41
605	2.5167	536.8	1285.1	337.15	422.18	1532.6	495.71	411.34	1544.7	156.59	407.1	1850.6	334.33	486.42	1016.9	465.38	500.31	1024.2	214.15	290.5	1050.2	370.25	296.95	1052.7	279.19	395.39	941.88	521.31	404.84	950.62	137.05	398.74	1105.9	500.34	411.92	1105.9	165.31	278.59	1014.5	335.28	424.71	719.11	528.85	467.46	638.38	481.9	401.03	632.88	512.29	487.59	724.53	498.8	384.6	537.68	494.06	379.83	513.25	364.76	297.33	302.89	510.9	359.72	236.64	512.27	294.67	226.44	499.94	361.82	314.54	520.13	346.98	125.72	504.72	348.83	140.18	417.14	272.56	75.179	456.63	280.71	41.759	429.64	283.22	48.837	494.57	452.06	37.305	534.35	478.72	40.441	412.36	546.05	57.057	452.73	384.82	716.13	125.52	455.11	633.37	146.79	384.3	620.84	137.29	462.75	723.81	134.91	386.04	528.46	139.43	314.84	333.5	121.09	380.29	273.25	123.42	310.46	260.8	134.24	380.5	344.19	116.49	340.13	116.99	133.17	368.29	128.27	221.35	278.42	68.659	178.44	289.09	43.991	210.93	283.45	41.467	149.81	468.17	39.542	103.83	486.06	50.424	224.03	553.01	59.049	171.74	364.32	1580.2	332.42	275.78	1295.9	331.41
606	2.5208	536.79	1285.1	337.14	422.17	1532.6	495.7	411.31	1544.7	156.58	407.06	1850.6	334.31	486.41	1016.9	465.38	500.31	1024.2	214.15	290.49	1050.2	370.24	296.94	1052.7	279.18	395.38	941.88	521.3	404.84	950.62	137.04	398.75	1105.9	500.33	411.92	1105.9	165.31	278.58	1014.5	335.28	424.71	719.11	528.85	467.46	638.38	481.9	401.03	632.88	512.29	487.59	724.53	498.8	384.6	537.68	494.06	379.82	513.25	364.76	297.32	302.89	510.9	359.72	236.64	512.27	294.67	226.44	499.94	361.82	314.54	520.13	346.98	125.72	504.72	348.83	140.18	417.14	272.56	75.18	456.63	280.71	41.759	429.64	283.22	48.837	494.57	452.06	37.305	534.35	478.72	40.441	412.36	546.05	57.058	452.73	384.82	716.12	125.52	455.12	633.37	146.79	384.3	620.84	137.29	462.75	723.82	134.9	386.05	528.46	139.43	314.84	333.5	121.09	380.29	273.25	123.42	310.46	260.79	134.24	380.51	344.18	116.49	340.13	116.99	133.17	368.29	128.27	221.35	278.42	68.659	178.44	289.09	43.99	210.93	283.45	41.467	149.81	468.17	39.542	103.83	486.06	50.424	224.03	553.01	59.049	171.74	364.3	1580.2	332.41	275.77	1295.9	331.4
